<?xml version="1.0" standalone="no"?>
<!DOCTYPE svg PUBLIC "-//W3C//DTD SVG 20010904//EN"
 "http://www.w3.org/TR/2001/REC-SVG-20010904/DTD/svg10.dtd">
<svg version="1.0" xmlns="http://www.w3.org/2000/svg"
 width="100.000000pt" height="100.000000pt" viewBox="0 0 100.000000 100.000000"
 preserveAspectRatio="xMidYMid meet">
<metadata>
Created by potrace 1.11, written by Peter Selinger 2001-2013
</metadata>
<g transform="translate(0.000000,100.000000) scale(0.100000,-0.100000)"
fill="#000000" stroke="none">
<path d="M481 881 c-70 -98 -67 -249 6 -313 19 -17 20 -17 41 5 56 59 69 168
32 255 -12 28 -30 58 -40 67 -17 15 -19 14 -39 -14z m60 -79 c18 -53 13 -124
-11 -171 -11 -23 -22 -41 -25 -41 -3 0 -14 19 -26 42 -28 54 -27 133 1 188 25
48 41 43 61 -18z"/>
<path d="M244 785 c-11 -28 3 -120 25 -163 38 -75 107 -112 221 -117 l75 -4
-3 -30 c-3 -28 -1 -30 55 -41 32 -7 79 -21 106 -31 40 -16 47 -16 47 -4 0 17
-46 38 -124 56 -49 11 -57 15 -54 33 2 13 19 28 49 42 87 42 129 113 129 223
0 53 0 53 -27 47 -76 -18 -154 -113 -169 -203 -5 -35 -4 -43 8 -43 10 0 18 14
22 43 9 57 48 121 90 146 18 12 36 21 40 21 13 0 5 -77 -13 -116 -34 -74 -116
-117 -216 -112 l-58 3 -13 64 c-16 76 -50 132 -102 165 -53 34 -81 41 -88 21z
m77 -48 c40 -27 89 -116 89 -163 l0 -34 -37 19 c-47 23 -68 46 -88 94 -16 39
-20 107 -6 107 4 0 23 -10 42 -23z"/>
<path d="M420 482 c0 -15 -12 -21 -57 -32 -79 -17 -123 -36 -123 -54 0 -12 7
-11 48 4 26 10 73 23 105 30 54 11 58 13 55 38 -4 30 -28 43 -28 14z"/>
<path d="M246 205 c-30 -76 -30 -75 -12 -75 7 0 16 9 19 20 3 13 14 20 31 20
15 0 30 -8 36 -20 6 -11 17 -20 25 -20 19 0 -36 134 -57 138 -11 2 -23 -17
-42 -63z m57 5 c3 -13 0 -23 -9 -27 -21 -8 -27 2 -20 32 7 29 21 26 29 -5z"/>
<path d="M376 248 c-46 -65 21 -142 98 -112 10 4 16 18 16 35 0 24 -4 29 -25
29 -14 0 -25 -4 -25 -10 0 -5 5 -10 10 -10 6 0 10 -7 10 -15 0 -18 -41 -20
-58 -3 -17 17 -15 63 2 78 8 6 29 10 45 8 17 -1 32 2 33 7 2 6 -18 11 -44 13
-39 3 -49 -1 -62 -20z"/>
<path d="M510 201 c0 -56 3 -71 15 -71 10 0 15 10 15 30 0 17 4 30 9 30 6 0
18 -13 28 -30 9 -16 23 -30 30 -30 17 0 16 6 -3 35 -13 20 -14 28 -4 39 6 8
10 25 8 38 -3 20 -10 23 -50 26 l-48 3 0 -70z m66 44 c19 -15 19 -15 0 -30
-29 -22 -36 -19 -36 15 0 34 7 37 36 15z"/>
<path d="M646 248 c-23 -32 -20 -71 7 -96 57 -54 144 2 116 75 -13 35 -26 43
-71 43 -27 0 -41 -6 -52 -22z m97 -19 c5 -9 7 -28 3 -42 -7 -31 -48 -46 -71
-27 -18 15 -20 61 -3 78 17 17 58 11 71 -9z"/>
</g>
</svg>
